{
  "asset": {
    "generator": "glTF-Transform v4.2.1",
    "version": "2.0"
  },
  "accessors": [
    {
      "type": "VEC3",
      "componentType": 5126,
      "count": 26082,
      "max": [
        39.808799743652344,
        29.347299575805664,
        67.25779724121094
      ],
      "min": [
        -76.69120025634766,
        -43.89590072631836,
        1.3173999786376953
      ],
      "bufferView": 0,
      "byteOffset": 0
    },
    {
      "type": "VEC3",
      "componentType": 5126,
      "count": 26082,
      "bufferView": 0,
      "byteOffset": 12
    },
    {
      "type": "VEC3",
      "componentType": 5126,
      "count": 3852,
      "max": [
        49.95899963378906,
        -39.59429931640625,
        41.95050048828125
      ],
      "min": [
        -92.32430267333984,
        -57.915199279785156,
        18.643999099731445
      ],
      "bufferView": 1,
      "byteOffset": 0
    },
    {
      "type": "VEC3",
      "componentType": 5126,
      "count": 3852,
      "bufferView": 1,
      "byteOffset": 12
    }
  ],
  "bufferViews": [
    {
      "buffer": 0,
      "byteOffset": 0,
      "byteLength": 625968,
      "byteStride": 24,
      "target": 34962
    },
    {
      "buffer": 0,
      "byteOffset": 625968,
      "byteLength": 92448,
      "byteStride": 24,
      "target": 34962
    }
  ],
  "buffers": [
    {
      "uri": "buffer.bin",
      "byteLength": 718416
    }
  ],
  "materials": [
    {
      "name": "color_-1716459281",
      "alphaMode": "BLEND",
      "doubleSided": true,
      "pbrMetallicRoughness": {
        "baseColorFactor": [
          0.6901960784313725,
          0.9098039215686274,
          0.9372549019607843,
          0.4
        ],
        "metallicFactor": 0
      }
    },
    {
      "name": "color_1650274",
      "doubleSided": true,
      "pbrMetallicRoughness": {
        "baseColorFactor": [
          0.09803921568627451,
          0.1803921568627451,
          0.3843137254901961,
          1
        ],
        "metallicFactor": 0
      }
    }
  ],
  "meshes": [
    {
      "primitives": [
        {
          "attributes": {
            "POSITION": 0,
            "NORMAL": 1
          },
          "mode": 4,
          "material": 0
        }
      ]
    },
    {
      "primitives": [
        {
          "attributes": {
            "POSITION": 2,
            "NORMAL": 3
          },
          "mode": 4,
          "material": 1
        }
      ]
    }
  ],
  "nodes": [
    {
      "name": "empty_2",
      "children": [
        1,
        2
      ]
    },
    {
      "name": "g group_0_-1716459281",
      "mesh": 0
    },
    {
      "name": "g group_1_1650274",
      "mesh": 1
    }
  ],
  "scenes": [
    {
      "name": "empty_1",
      "nodes": [
        0
      ]
    }
  ],
  "scene": 0
}